<?xml version="1.0" encoding="UTF-8" standalone="yes"?>
<svg width="235" height="235" viewBox="0 0 235 235" fill="none" version="1.2" baseProfile="tiny-ps" xmlns="http://www.w3.org/2000/svg">
  <title>creatika</title>
  <path d="M1 51C1 23.3858 23.3858 1 51 1H184C211.614 1 234 23.3858 234 51V184C234 211.614 211.614 234 184 234H51C23.3858 234 1 211.614 1 184V51Z" fill="#0A0A0A"/>
  <path d="M155.676 36.6926H152.667C148.152 36.6926 144.491 40.487 144.491 45.1685V61.4241C144.491 65.7685 141.093 69.2907 136.902 69.2907C132.711 69.2907 129.313 65.7685 129.313 61.4241V32.4852C129.313 27.0074 125.17 22.3667 119.887 22.2259C114.424 22.0796 109.95 26.6278 109.95 32.2592V207.515C109.95 212.993 114.093 217.633 119.376 217.774C124.839 217.92 129.313 213.372 129.313 207.741V178.576C129.313 174.231 132.711 170.709 136.902 170.709C141.093 170.709 144.491 174.231 144.491 178.576V194.831C144.491 199.513 148.152 203.307 152.667 203.307H155.676C160.191 203.307 163.852 199.513 163.852 194.831V45.1685C163.852 40.487 160.191 36.6926 155.676 36.6926ZM145.639 146.537C145.639 150.381 142.633 153.496 138.926 153.496C135.219 153.496 132.213 150.38 132.213 146.537V91.0111C132.213 87.1666 135.219 84.0518 138.926 84.0518C142.633 84.0518 145.639 87.1685 145.639 91.0111V146.537Z" fill="#FFFFF4"/>
  <path d="M163.609 160.67C163.609 157.676 165.95 155.248 168.839 155.248C171.728 155.248 174.069 157.676 174.069 160.67V171.874C174.069 175.1 176.591 177.717 179.704 177.717H181.778C184.891 177.717 187.413 175.102 187.413 171.874V68.7185C187.413 65.4926 184.891 62.8759 181.778 62.8759H179.704C176.591 62.8759 174.069 65.4908 174.069 68.7185V79.9222C174.069 82.9167 171.728 85.3445 168.839 85.3445C165.95 85.3445 163.609 82.9167 163.609 79.9222M174.861 138.585C174.861 141.235 172.789 143.382 170.233 143.382C167.678 143.382 165.606 141.233 165.606 138.585V100.315C165.606 97.6648 167.678 95.5185 170.233 95.5185C172.789 95.5185 174.861 97.6667 174.861 100.315V138.585Z" fill="#FFFFF4"/>
  <path d="M75.537 194.831C75.537 199.513 79.1981 203.307 83.713 203.307H86.7222C91.237 203.307 94.8981 199.513 94.8981 194.831V178.576C94.8981 174.231 98.2963 170.709 102.487 170.709C106.678 170.709 110.076 174.231 110.076 178.576V207.741C110.076 213.372 114.548 217.918 120.013 217.774C125.296 217.633 129.439 212.993 129.439 207.515V32.2592C129.439 26.6278 124.967 22.0796 119.502 22.2259C114.219 22.3667 110.076 27.0074 110.076 32.4852V61.4222C110.076 65.7667 106.678 69.2889 102.487 69.2889C98.2963 69.2889 94.8981 65.7667 94.8981 61.4222V45.1666C94.8981 40.4852 91.237 36.6907 86.7222 36.6907H83.713C79.1981 36.6907 75.537 40.4852 75.537 45.1666V194.831ZM93.75 91.0129C93.75 87.1685 96.7556 84.0537 100.463 84.0537C104.17 84.0537 107.176 87.1704 107.176 91.0129V146.537C107.176 150.381 104.17 153.496 100.463 153.496C96.7556 153.496 93.75 150.38 93.75 146.537V91.0111V91.0129Z" fill="#FFFFF4"/>
  <path d="M75.5204 79.6259C75.5204 82.6204 73.1796 85.0481 70.2907 85.0481C67.4019 85.0481 65.0611 82.6204 65.0611 79.6259V68.4222C65.0611 65.1963 62.5389 62.5796 59.4259 62.5796H57.3518C54.2389 62.5796 51.7167 65.1944 51.7167 68.4222V171.578C51.7167 174.804 54.2389 177.42 57.3518 177.42H59.4259C62.5389 177.42 65.0611 174.806 65.0611 171.578V160.374C65.0611 157.38 67.4019 154.952 70.2907 154.952C73.1796 154.952 75.5204 157.38 75.5204 160.374M64.2685 100.02C64.2685 97.3704 66.3407 95.2241 68.8963 95.2241C71.4518 95.2241 73.5241 97.3722 73.5241 100.02V138.291C73.5241 140.941 71.4518 143.087 68.8963 143.087C66.3407 143.087 64.2685 140.939 64.2685 138.291V100.02Z" fill="#FFFFF4"/>
  <path d="M187.431 144.696C187.431 142.865 188.863 141.38 190.631 141.38C192.398 141.38 193.831 142.865 193.831 144.696V151.55C193.831 153.524 195.374 155.124 197.278 155.124H198.546C200.45 155.124 201.993 153.524 201.993 151.55V88.4518C201.993 86.4778 200.45 84.8778 198.546 84.8778H197.278C195.374 84.8778 193.831 86.4778 193.831 88.4518V95.3055C193.831 97.137 192.4 98.6222 190.631 98.6222C188.865 98.6222 187.431 97.137 187.431 95.3055M194.315 131.189C194.315 132.809 193.048 134.122 191.485 134.122C189.922 134.122 188.656 132.809 188.656 131.189V107.78C188.656 106.159 189.922 104.846 191.485 104.846C193.048 104.846 194.315 106.159 194.315 107.78V131.189Z" fill="#FFFFF4"/>
  <path d="M52.5685 95.3037C52.5685 97.1352 51.137 98.6204 49.3685 98.6204C47.6018 98.6204 46.1685 97.1352 46.1685 95.3037V88.45C46.1685 86.4759 44.6259 84.8759 42.7222 84.8759H41.4537C39.55 84.8759 38.0074 86.4759 38.0074 88.45V151.548C38.0074 153.522 39.55 155.122 41.4537 155.122H42.7222C44.6259 155.122 46.1685 153.522 46.1685 151.548V144.694C46.1685 142.863 47.6 141.378 49.3685 141.378C51.1352 141.378 52.5685 142.863 52.5685 144.694M45.6852 107.778C45.6852 106.157 46.9518 104.844 48.5148 104.844C50.0778 104.844 51.3444 106.157 51.3444 107.778V131.187C51.3444 132.807 50.0778 134.12 48.5148 134.12C46.9518 134.12 45.6852 132.807 45.6852 131.187V107.778Z" fill="#FFFFF4"/>
  <path d="M163.609 160.67C163.609 157.676 165.95 155.248 168.839 155.248C171.728 155.248 174.069 157.676 174.069 160.67V171.874C174.069 175.1 176.591 177.717 179.704 177.717H181.778C184.891 177.717 187.413 175.102 187.413 171.874V68.7185C187.413 65.4926 184.891 62.8759 181.778 62.8759H179.704C176.591 62.8759 174.069 65.4908 174.069 68.7185V79.9222C174.069 82.9167 171.728 85.3445 168.839 85.3445C165.95 85.3445 163.609 82.9167 163.609 79.9222M75.5204 79.6259C75.5204 82.6204 73.1796 85.0481 70.2907 85.0481C67.4019 85.0481 65.0611 82.6204 65.0611 79.6259V68.4222C65.0611 65.1963 62.5389 62.5796 59.4259 62.5796H57.3518C54.2389 62.5796 51.7167 65.1944 51.7167 68.4222V171.578C51.7167 174.804 54.2389 177.42 57.3518 177.42H59.4259C62.5389 177.42 65.0611 174.806 65.0611 171.578V160.374C65.0611 157.38 67.4019 154.952 70.2907 154.952C73.1796 154.952 75.5204 157.38 75.5204 160.374M187.431 144.696C187.431 142.865 188.863 141.38 190.631 141.38C192.398 141.38 193.831 142.865 193.831 144.696V151.55C193.831 153.524 195.374 155.124 197.278 155.124H198.546C200.45 155.124 201.993 153.524 201.993 151.55V88.4518C201.993 86.4778 200.45 84.8778 198.546 84.8778H197.278C195.374 84.8778 193.831 86.4778 193.831 88.4518V95.3055C193.831 97.137 192.4 98.6222 190.631 98.6222C188.865 98.6222 187.431 97.137 187.431 95.3055M52.5685 95.3037C52.5685 97.1352 51.137 98.6204 49.3685 98.6204C47.6018 98.6204 46.1685 97.1352 46.1685 95.3037V88.45C46.1685 86.4759 44.6259 84.8759 42.7222 84.8759H41.4537C39.55 84.8759 38.0074 86.4759 38.0074 88.45V151.548C38.0074 153.522 39.55 155.122 41.4537 155.122H42.7222C44.6259 155.122 46.1685 153.522 46.1685 151.548V144.694C46.1685 142.863 47.6 141.378 49.3685 141.378C51.1352 141.378 52.5685 142.863 52.5685 144.694M51 234H184C211.614 234 234 211.614 234 184V51C234 23.3858 211.614 1 184 1H51C23.3858 1 1 23.3858 1 51V184C1 211.614 23.3858 234 51 234ZM155.676 36.6926H152.667C148.152 36.6926 144.491 40.487 144.491 45.1685V61.4241C144.491 65.7685 141.093 69.2907 136.902 69.2907C132.711 69.2907 129.313 65.7685 129.313 61.4241V32.4852C129.313 27.0074 125.17 22.3667 119.887 22.2259C114.424 22.0796 109.95 26.6278 109.95 32.2592V207.515C109.95 212.993 114.093 217.633 119.376 217.774C124.839 217.92 129.313 213.372 129.313 207.741V178.576C129.313 174.231 132.711 170.709 136.902 170.709C141.093 170.709 144.491 174.231 144.491 178.576V194.831C144.491 199.513 148.152 203.307 152.667 203.307H155.676C160.191 203.307 163.852 199.513 163.852 194.831V45.1685C163.852 40.487 160.191 36.6926 155.676 36.6926ZM145.639 146.537C145.639 150.381 142.633 153.496 138.926 153.496C135.219 153.496 132.213 150.38 132.213 146.537V91.0111C132.213 87.1666 135.219 84.0518 138.926 84.0518C142.633 84.0518 145.639 87.1685 145.639 91.0111V146.537ZM174.861 138.585C174.861 141.235 172.789 143.382 170.233 143.382C167.678 143.382 165.606 141.233 165.606 138.585V100.315C165.606 97.6648 167.678 95.5185 170.233 95.5185C172.789 95.5185 174.861 97.6667 174.861 100.315V138.585ZM75.537 194.831C75.537 199.513 79.1981 203.307 83.713 203.307H86.7222C91.237 203.307 94.8981 199.513 94.8981 194.831V178.576C94.8981 174.231 98.2963 170.709 102.487 170.709C106.678 170.709 110.076 174.231 110.076 178.576V207.741C110.076 213.372 114.548 217.918 120.013 217.774C125.296 217.633 129.439 212.993 129.439 207.515V32.2592C129.439 26.6278 124.967 22.0796 119.502 22.2259C114.219 22.3667 110.076 27.0074 110.076 32.4852V61.4222C110.076 65.7667 106.678 69.2889 102.487 69.2889C98.2963 69.2889 94.8981 65.7667 94.8981 61.4222V45.1666C94.8981 40.4852 91.237 36.6907 86.7222 36.6907H83.713C79.1981 36.6907 75.537 40.4852 75.537 45.1666V194.831ZM93.75 91.0129C93.75 87.1685 96.7556 84.0537 100.463 84.0537C104.17 84.0537 107.176 87.1704 107.176 91.0129V146.537C107.176 150.381 104.17 153.496 100.463 153.496C96.7556 153.496 93.75 150.38 93.75 146.537V91.0111V91.0129ZM64.2685 100.02C64.2685 97.3704 66.3407 95.2241 68.8963 95.2241C71.4518 95.2241 73.5241 97.3722 73.5241 100.02V138.291C73.5241 140.941 71.4518 143.087 68.8963 143.087C66.3407 143.087 64.2685 140.939 64.2685 138.291V100.02ZM194.315 131.189C194.315 132.809 193.048 134.122 191.485 134.122C189.922 134.122 188.656 132.809 188.656 131.189V107.78C188.656 106.159 189.922 104.846 191.485 104.846C193.048 104.846 194.315 106.159 194.315 107.78V131.189ZM45.6852 107.778C45.6852 106.157 46.9518 104.844 48.5148 104.844C50.0778 104.844 51.3444 106.157 51.3444 107.778V131.187C51.3444 132.807 50.0778 134.12 48.5148 134.12C46.9518 134.12 45.6852 132.807 45.6852 131.187V107.778Z" stroke="#FFFFF4" stroke-width="0.185185" stroke-miterlimit="10"/>
</svg>